<?xml version="1.0" standalone="no"?>
<!DOCTYPE svg PUBLIC "-//W3C//DTD SVG 20010904//EN"
 "http://www.w3.org/TR/2001/REC-SVG-20010904/DTD/svg10.dtd">
<svg version="1.0" xmlns="http://www.w3.org/2000/svg"
 width="360.000000pt" height="360.000000pt" viewBox="0 0 360.000000 360.000000"
 preserveAspectRatio="xMidYMid meet">
<metadata>
Created by potrace 1.11, written by Peter Selinger 2001-2013
</metadata>
<g transform="translate(0.000000,360.000000) scale(0.100000,-0.100000)"
fill="#000000" stroke="none">
<path d="M1749 3182 c-33 -15 -68 -50 -81 -80 -7 -18 -131 -151 -275 -296
l-263 -264 -346 0 c-294 1 -348 -2 -361 -14 -13 -13 -15 -144 -15 -1052 0
-799 3 -1040 12 -1051 11 -13 191 -15 1380 -15 1203 0 1369 2 1380 15 10 12
12 240 12 1051 1 920 -1 1038 -15 1051 -13 13 -62 16 -357 15 l-341 0 -31 27
c-85 70 -505 506 -521 539 -10 20 -29 46 -44 56 -27 20 -107 31 -134 18z m80
-103 c29 -31 10 -69 -35 -69 -13 0 -25 10 -32 25 -10 21 -9 28 8 45 25 25 35
25 59 -1z m-32 -169 c16 0 50 11 74 23 l44 24 203 -203 c111 -111 202 -203
202 -205 0 -2 -234 -4 -519 -4 -344 0 -517 3 -513 10 3 5 94 98 202 206 l195
197 41 -24 c22 -13 54 -24 71 -24z"/>
</g>
</svg>
