<svg id="Layer_1" data-name="Layer 1" xmlns="http://www.w3.org/2000/svg" viewBox="0 0 360 360"><title>juried logo</title><path d="M180,319H48.3a31,31,0,0,1-3.49-.15,4.1,4.1,0,0,1-3.91-4.11c-0.08-.91-0.08-1.83-0.08-2.75q0-99.62,0-199.24c0-5.66,1.27-6.94,6.86-6.94,21,0,42,0,63,0A5.54,5.54,0,0,0,115,104q24.69-24.8,49.44-49.54a9.57,9.57,0,0,0,2.17-3.72A14.31,14.31,0,0,1,179.79,41a14.15,14.15,0,0,1,13.28,9.21A13.72,13.72,0,0,0,196,54.93q24.49,24.65,49.09,49.19a5.28,5.28,0,0,0,4.13,1.72q31.5-.09,63,0c5.66,0,7,1.29,7,6.85q0,99.87,0,199.73c0,5.31-1.3,6.6-6.65,6.6H180ZM73.52,138.34V286.26h213V138.34h-213ZM303.17,309.71c-4.67-4.7-9-9.08-13.36-13.35a3.65,3.65,0,0,0-2.32-.52q-107.48,0-215,0a5.18,5.18,0,0,0-3.2,1.36C65.8,300.53,62.43,304,59,307.42c-0.65.65-1.27,1.34-2.17,2.3H303.17ZM56.75,115.31c4.16,4.13,8,7.75,11.57,11.55A6.53,6.53,0,0,0,73.53,129Q151,129,228.47,129q29.24,0,58.48,0c1,0,2.4,0,3-.61,4.35-4.17,8.55-8.49,13.08-13.05H56.75Zm70.39-9.67H232.93l-41.85-42c-6.45,6.78-15.25,7.23-22.16,0ZM50.08,302.35l0.58,0.42c4-4.09,8.06-8.13,12-12.31a5.18,5.18,0,0,0,1.32-3.22q0.1-74.86,0-149.72a5.14,5.14,0,0,0-1.32-3.22c-3.56-3.74-7.26-7.34-10.93-11a19.58,19.58,0,0,0-1.61-1.27V302.35Zm259.67,0.8V121.63c-4.35,4.43-8.33,8.34-12.11,12.44a6.27,6.27,0,0,0-1.58,3.85c-0.1,21-.07,42-0.07,63q0,43,0,86a4.69,4.69,0,0,0,.75,3C300.87,294.22,305.12,298.45,309.75,303.15ZM175.45,54.9a4.55,4.55,0,0,0,9.09,0A4.55,4.55,0,1,0,175.45,54.9Z" fill="#1c1c1a"/><path d="M73.52,138.34h213V286.26h-213V138.34Zm106.61,13.92h-87c-4.41,0-5.91,1.44-5.91,5.75q0,54.36,0,108.72c0,4.43,1.57,6,6,6H266.74c4.4,0,6.19-1.73,6.19-6.22q0-54.11,0-108.22c0-4.4-1.71-6-6.07-6H180.13Z" fill="#d6b26e"/><path d="M303.17,309.71H56.84c0.9-1,1.52-1.64,2.17-2.3,3.42-3.42,6.79-6.88,10.31-10.19a5.18,5.18,0,0,1,3.2-1.36q107.48-.09,215,0a3.65,3.65,0,0,1,2.32.52C294.2,300.63,298.5,305,303.17,309.71Z" fill="#d6b26e"/><path d="M56.75,115.31H303.06c-4.53,4.56-8.73,8.88-13.08,13.05-0.63.61-2,.61-3,0.61q-29.24.05-58.48,0Q151,129,73.53,129a6.53,6.53,0,0,1-5.22-2.19C64.7,123.06,60.91,119.44,56.75,115.31Z" fill="#d6b26e"/><path d="M50.08,302.35V122.06a19.58,19.58,0,0,1,1.61,1.27c3.67,3.64,7.38,7.23,10.93,11a5.14,5.14,0,0,1,1.32,3.22q0.1,74.86,0,149.72a5.18,5.18,0,0,1-1.32,3.22c-3.91,4.18-8,8.22-12,12.31Z" fill="#d6b26e"/><path d="M309.75,303.15c-4.62-4.7-8.87-8.93-13-13.3a4.69,4.69,0,0,1-.75-3q-0.06-43,0-86c0-21,0-42,.07-63a6.27,6.27,0,0,1,1.58-3.85c3.78-4.09,7.76-8,12.11-12.44V303.15Z" fill="#d6b26e"/><path d="M179.9,152.26l86.72-.33c4.36,0,6.07,1.58,6.09,6q0.24,54.11.42,108.22c0,4.48-1.77,6.22-6.17,6.24L93.52,273c-4.47,0-6-1.51-6.06-5.94Q87.24,212.72,87,158.37c0-4.31,1.47-5.76,5.88-5.78Zm83.47,77.93-0.26-68.85L96.5,162l0.24,63.21a3.17,3.17,0,0,0,.64-0.29q21.29-18.9,42.56-37.82c3.36-3,5.12-3.13,8.48-.32q15,12.57,30.05,25.19c3.69,3.09,7.39,6.16,11.1,9.24l28.35-20.38c3.21-2.3,4.58-2.25,7.78.22l25.86,20ZM96.69,263.42l167-.64c0-6.62,0-13-.13-19.44a3.36,3.36,0,0,0-1.24-2.18c-3.43-2.77-7-5.42-10.45-8.13l-30.21-23.43c-0.49.33-.92,0.58-1.32,0.87q-13.79,9.9-27.59,19.8c-2.77,2-4.49,2-7-.12q-14.86-12.41-29.68-24.86c-3.87-3.24-7.77-6.47-11.6-9.65-0.53.36-.82,0.52-1.07,0.74q-23,20.39-45.93,40.81a2.57,2.57,0,0,0-.89,1.64C96.61,247,96.66,255.14,96.69,263.42Z"/><path d="M263.3,230.5l-11.77-9.17-25.78-20.14c-3.18-2.49-4.56-2.54-7.78-.25l-28.43,20.27c-3.69-3.1-7.39-6.18-11.06-9.28q-15-12.65-30-25.3c-3.35-2.82-5.11-2.69-8.48.29q-21.33,18.85-42.71,37.66a3.17,3.17,0,0,1-.64.29V161.65H263.3V230.5Zm-60.18-41.36a13.84,13.84,0,1,0-13.78,14A13.92,13.92,0,0,0,203.12,189.14Z" fill="#fff"/><path d="M96.5,263.1c0-8.28,0-16.44,0-24.59a2.57,2.57,0,0,1,.89-1.63q23-20.35,46.09-40.64c0.25-.22.54-0.38,1.07-0.74,3.82,3.2,7.7,6.44,11.56,9.7q14.8,12.48,29.59,25c2.47,2.08,4.19,2.12,7,.14q13.85-9.82,27.66-19.69c0.4-.29.82-0.54,1.32-0.87l30.12,23.55c3.48,2.72,7,5.39,10.42,8.17a3.36,3.36,0,0,1,1.23,2.18c0.1,6.41.06,12.82,0.06,19.44H96.5ZM126.84,223l-19.75,18.61,7,6.12,19.11-18Zm97.71,7.11-5.61-7.48-18.53,14L206,244Zm-82.94-21-9.79,9.31,6.52,7,9.07-10.17Z" fill="#fff"/><path d="M203.12,189.14a13.84,13.84,0,1,1-13.77-13.83A13.87,13.87,0,0,1,203.12,189.14Zm-9.19.18a4.63,4.63,0,0,0-4.59-4.62,4.55,4.55,0,1,0-.12,9.11A4.63,4.63,0,0,0,193.93,189.32Z"/><path d="M126.84,223l6.37,6.74-19.11,18-7-6.12Z"/><path d="M224.55,230.12L206,244l-5.59-7.33,18.53-14Z"/><path d="M141.61,209.09l5.8,6.1-9.07,10.17-6.52-7Z"/><path d="M193.93,189.32a4.67,4.67,0,0,1-9.34-.12,4.68,4.68,0,0,1,4.75-4.49A4.63,4.63,0,0,1,193.93,189.32Z" fill="#fff"/><rect x="96.7" y="161.65" width="166.81" height="101.45" fill="#fff"/><path d="M135.15,174.73v19.36a18.34,18.34,0,0,1-.13,2.26,7.25,7.25,0,0,1-.43,1.78,7.93,7.93,0,0,1-1.31,2.17,8.11,8.11,0,0,1-1.94,1.67,9.82,9.82,0,0,1-2.46,1.07,10.21,10.21,0,0,1-2.83.39,8.51,8.51,0,0,1-7.29-4.11l4.74-4.85a3.88,3.88,0,0,0,.81,2,2,2,0,0,0,1.55.74q2,0,2-3.22V174.73h7.25Z" fill="#231f20"/><path d="M147.11,183.65v10.7q0,3.52,3.41,3.52t3.41-3.52v-10.7h6.7v12a6.79,6.79,0,0,1-2.54,5.77q-2.54,1.92-7.57,1.92t-7.57-1.92a6.79,6.79,0,0,1-2.54-5.77v-12h6.7Z" fill="#231f20"/><path d="M165.17,183.65h6.7v3.11a7.7,7.7,0,0,1,2.63-2.61,7.07,7.07,0,0,1,3.63-.91h0.57a4.15,4.15,0,0,1,.72.07v6.4a6.37,6.37,0,0,0-2.89-.67,4.31,4.31,0,0,0-3.5,1.39,6.15,6.15,0,0,0-1.17,4.05v8.14h-6.7v-19Z" fill="#231f20"/><path d="M182,176.36a3.65,3.65,0,0,1,.3-1.46,3.84,3.84,0,0,1,2-2,3.76,3.76,0,0,1,2.92,0,3.84,3.84,0,0,1,2,2,3.76,3.76,0,0,1,0,2.92,3.84,3.84,0,0,1-2,2,3.76,3.76,0,0,1-2.92,0,3.84,3.84,0,0,1-2-2A3.64,3.64,0,0,1,182,176.36Zm7.14,7.29v19h-6.7v-19h6.7Z" fill="#231f20"/><path d="M199.74,194.28q0,4.33,4.07,4.33a3.64,3.64,0,0,0,3.29-1.78h6.48q-2,6.52-9.81,6.51a12.88,12.88,0,0,1-4.41-.72,9.82,9.82,0,0,1-3.42-2.05,9.13,9.13,0,0,1-2.2-3.18,10.6,10.6,0,0,1-.78-4.15,11.73,11.73,0,0,1,.74-4.28,9,9,0,0,1,2.11-3.24,9.35,9.35,0,0,1,3.31-2.05,12.52,12.52,0,0,1,4.39-.72,12.26,12.26,0,0,1,4.33.72,8.77,8.77,0,0,1,3.26,2.09,9.09,9.09,0,0,1,2,3.35,13.28,13.28,0,0,1,.7,4.46v0.7h-14.1Zm7.85-3.89a4,4,0,0,0-1.37-2.26,4.25,4.25,0,0,0-5.05,0,3.68,3.68,0,0,0-1.24,2.29h7.66Z" fill="#231f20"/><path d="M232.32,171.92h6.74v30.72h-6.74v-2.11a7,7,0,0,1-5.81,2.7,9.24,9.24,0,0,1-3.81-.78,9.41,9.41,0,0,1-3-2.15,9.81,9.81,0,0,1-2-3.22,11.35,11.35,0,0,1,0-7.87,9.7,9.7,0,0,1,1.94-3.2,9.2,9.2,0,0,1,6.88-3,7.74,7.74,0,0,1,5.89,2.48V171.92Zm-8.44,21.17a4.43,4.43,0,0,0,1.24,3.11,4.06,4.06,0,0,0,1.37.92,4.4,4.4,0,0,0,1.72.33,4.31,4.31,0,0,0,1.68-.33,4.08,4.08,0,0,0,1.37-.92,4.79,4.79,0,0,0,.92-1.37,4,4,0,0,0,.35-1.67,4.12,4.12,0,0,0-.35-1.68,4.72,4.72,0,0,0-.92-1.39,4.08,4.08,0,0,0-1.37-.93,4.42,4.42,0,0,0-3.37,0,4.06,4.06,0,0,0-1.37.93,4.87,4.87,0,0,0-.93,1.35A3.87,3.87,0,0,0,223.88,193.09Z" fill="#231f20"/><path d="M126,228.48a7.74,7.74,0,0,0-6.22-3.07,7.61,7.61,0,0,0-3,.59,7.33,7.33,0,0,0-2.39,1.61,7.41,7.41,0,0,0-1.57,2.42,8,8,0,0,0-.57,3,8,8,0,0,0,.57,3.07,7.41,7.41,0,0,0,6.94,4.66,8.4,8.4,0,0,0,6.26-3v8.59l-0.74.26a21.52,21.52,0,0,1-3.11.87,15.11,15.11,0,0,1-2.85.28,14.57,14.57,0,0,1-10.2-4.16,15.29,15.29,0,0,1-3.24-4.7,15.07,15.07,0,0,1,0-11.84,14.74,14.74,0,0,1,13.49-8.75,15.32,15.32,0,0,1,3.28.35,19.9,19.9,0,0,1,3.39,1.09v8.66Z" fill="#231f20"/><path d="M144.67,228.07h6.74v19h-6.74v-2.11a7,7,0,0,1-5.81,2.7,9.43,9.43,0,0,1-3.81-.76,9.17,9.17,0,0,1-3-2.13,9.82,9.82,0,0,1-2-3.22,11,11,0,0,1-.72-4,10.7,10.7,0,0,1,.7-3.87,9.94,9.94,0,0,1,2-3.2,9.27,9.27,0,0,1,3-2.17,9.15,9.15,0,0,1,3.85-.8,7.73,7.73,0,0,1,5.89,2.48v-1.89Zm-8.44,9.44a4.43,4.43,0,0,0,1.24,3.11,4.06,4.06,0,0,0,1.37.92,4.4,4.4,0,0,0,1.72.33,4.31,4.31,0,0,0,1.68-.33,4.07,4.07,0,0,0,1.37-.92,4.79,4.79,0,0,0,.93-1.37,4,4,0,0,0,.35-1.67,4.12,4.12,0,0,0-.35-1.68,4.72,4.72,0,0,0-.93-1.39,4.09,4.09,0,0,0-1.37-.93,4.32,4.32,0,0,0-1.68-.33,4.42,4.42,0,0,0-1.72.33,4.08,4.08,0,0,0-1.37.93,4.56,4.56,0,0,0-.91,1.35A4.05,4.05,0,0,0,136.23,237.51Z" fill="#231f20"/><path d="M163.43,233.66v13.4h-6.7v-13.4h-2.22v-5.59h2.22v-5.7h6.7v5.7h3.81v5.59h-3.81Z" fill="#231f20"/><path d="M184.79,228.07h6.74v19h-6.74v-2.11a7,7,0,0,1-5.81,2.7,9.43,9.43,0,0,1-3.81-.76,9.17,9.17,0,0,1-3-2.13,9.82,9.82,0,0,1-2-3.22,11,11,0,0,1-.72-4,10.7,10.7,0,0,1,.7-3.87,9.94,9.94,0,0,1,2-3.2,9.27,9.27,0,0,1,3-2.17,9.15,9.15,0,0,1,3.85-.8,7.73,7.73,0,0,1,5.89,2.48v-1.89Zm-8.44,9.44a4.43,4.43,0,0,0,1.24,3.11,4.06,4.06,0,0,0,1.37.92,4.4,4.4,0,0,0,1.72.33,4.31,4.31,0,0,0,1.68-.33,4.07,4.07,0,0,0,1.37-.92,4.79,4.79,0,0,0,.93-1.37,4,4,0,0,0,.35-1.67,4.12,4.12,0,0,0-.35-1.68,4.72,4.72,0,0,0-.93-1.39,4.09,4.09,0,0,0-1.37-.93,4.33,4.33,0,0,0-1.68-.33,4.42,4.42,0,0,0-1.72.33,4.08,4.08,0,0,0-1.37.93,4.56,4.56,0,0,0-.91,1.35A4.05,4.05,0,0,0,176.35,237.51Z" fill="#231f20"/><path d="M202.78,216.34v30.72h-6.7V216.34h6.7Z" fill="#231f20"/><path d="M206.63,237.4a9.24,9.24,0,0,1,.85-3.94,9.68,9.68,0,0,1,2.37-3.18,11.28,11.28,0,0,1,3.61-2.13,13,13,0,0,1,4.57-.78,13.22,13.22,0,0,1,4.53.76,11.26,11.26,0,0,1,3.63,2.11,9.48,9.48,0,0,1,2.39,3.22,9.85,9.85,0,0,1,.85,4.13,9.67,9.67,0,0,1-.87,4.13,9.81,9.81,0,0,1-2.39,3.22,10.7,10.7,0,0,1-3.65,2.09,14,14,0,0,1-4.61.74,13.35,13.35,0,0,1-4.52-.74,10.42,10.42,0,0,1-3.57-2.11,9.79,9.79,0,0,1-2.35-3.28A10.28,10.28,0,0,1,206.63,237.4Zm7.07,0.07a4.3,4.3,0,0,0,.35,1.76,4.69,4.69,0,0,0,.93,1.39,4.06,4.06,0,0,0,1.37.92,4.42,4.42,0,0,0,3.37,0,4.07,4.07,0,0,0,1.37-.92,4.73,4.73,0,0,0,.93-1.39,4.22,4.22,0,0,0,.35-1.72,4.14,4.14,0,0,0-.35-1.68,4.74,4.74,0,0,0-.93-1.39,4.09,4.09,0,0,0-1.37-.93,4.43,4.43,0,0,0-3.37,0,4.08,4.08,0,0,0-1.37.93,4.78,4.78,0,0,0-.93,1.37A4,4,0,0,0,213.7,237.47Z" fill="#231f20"/><path d="M254.53,228.07v17.69a19.64,19.64,0,0,1-.19,2.85,12.29,12.29,0,0,1-.52,2.22,7,7,0,0,1-1.39,2.28,9.31,9.31,0,0,1-2.28,1.83,12,12,0,0,1-3,1.22,15.2,15.2,0,0,1-7.72-.11,11.08,11.08,0,0,1-3.24-1.54,8.94,8.94,0,0,1-2.28-2.29,7.61,7.61,0,0,1-1.18-2.87h7.55a3,3,0,0,0,3.18,1.89,4.26,4.26,0,0,0,3.24-1.18,4.58,4.58,0,0,0,1.13-3.29v-1.81a11.14,11.14,0,0,1-1.42,1.17,8,8,0,0,1-1.39.76,6.6,6.6,0,0,1-1.48.43,10.34,10.34,0,0,1-1.7.13,9.7,9.7,0,0,1-3.74-.7,8.64,8.64,0,0,1-4.87-5,10.69,10.69,0,0,1-.68-3.91,10.89,10.89,0,0,1,.74-4.05,10.43,10.43,0,0,1,2-3.26,9.2,9.2,0,0,1,6.87-3,7.36,7.36,0,0,1,5.66,2.52v-2h6.7Zm-15,9.4a4.42,4.42,0,0,0,1.24,3.11,4.06,4.06,0,0,0,1.37.92,4.4,4.4,0,0,0,1.72.33,4.31,4.31,0,0,0,1.68-.33,4.08,4.08,0,0,0,1.37-.92,4.72,4.72,0,0,0,.92-1.39,4.26,4.26,0,0,0,0-3.39,4.61,4.61,0,0,0-.94-1.37,4.29,4.29,0,0,0-1.39-.93,4.23,4.23,0,0,0-1.65-.33,4,4,0,0,0-1.67.35,4.79,4.79,0,0,0-1.37.93,4.36,4.36,0,0,0-.94,1.35A4,4,0,0,0,239.5,237.47Z" fill="#231f20"/></svg>